<?xml version="1.0" encoding="iso-8859-1"?>
<!-- Uploaded to: SVG Repo, www.svgrepo.com, Generator: SVG Repo Mixer Tools -->
<svg height="800px" width="800px" version="1.1" id="Layer_1" xmlns="http://www.w3.org/2000/svg" xmlns:xlink="http://www.w3.org/1999/xlink" 
	 viewBox="0 0 511.999 511.999" xml:space="preserve">
<path style="fill:#FCC447;" d="M409.225,299.235H102.576l20.017,166.199c2.628,21.818,21.14,38.234,43.114,38.234h180.387
	c21.976,0,40.488-16.416,43.114-38.234L409.225,299.235z"/>
<path style="fill:#E8AF3D;" d="M167.142,465.433l-20.017-166.199h-44.549l20.017,166.199c2.628,21.818,21.139,38.233,43.114,38.233
	h44.549C188.281,503.667,169.77,487.251,167.142,465.433z"/>
<path style="fill:#73D8D0;" d="M294.797,81.351h16.19c43.836,0,83.526,17.768,112.261,46.502
	c28.735,28.724,46.502,68.415,46.502,112.261c0,32.646-26.468,59.125-59.125,59.125H101.176c-16.323,0-31.102-6.623-41.802-17.323
	c-10.701-10.701-17.323-25.479-17.323-41.802c0-87.682,71.081-158.763,158.763-158.763h16.19"/>
<path style="fill:#69CCC2;" d="M86.602,240.114c0-87.682,71.081-158.763,158.763-158.763h-28.363h-16.19
	c-87.682,0-158.763,71.081-158.763,158.763c0,16.323,6.623,31.102,17.323,41.802s25.479,17.323,41.802,17.323h44.552
	c-16.323,0-31.102-6.623-41.802-17.323C93.225,271.216,86.602,256.437,86.602,240.114z"/>
<circle style="fill:#FC675B;" cx="255.902" cy="56.634" r="46.076"/>
<path style="fill:#E8564F;" d="M234.379,56.634c0-21.193,14.314-39.033,33.798-44.409c-3.91-1.079-8.024-1.667-12.277-1.667
	c-25.447,0-46.076,20.629-46.076,46.076s20.629,46.077,46.076,46.077c4.254,0,8.367-0.588,12.277-1.667
	C248.694,95.668,234.379,77.827,234.379,56.634z"/>
<path d="M352.35,437.03c0.241,0.02,0.479,0.03,0.716,0.03c4.282,0,7.926-3.284,8.294-7.629l10.437-122.969h38.927
	c37.197,0,67.459-30.262,67.459-67.459c0-44.643-17.383-86.605-48.944-118.154c-31.562-31.563-73.521-48.945-118.153-48.945h-3.578
	c1.871-5.495,2.902-11.375,2.902-17.494C310.411,24.408,286.002,0,256.001,0s-54.409,24.408-54.409,54.409
	c0,6.119,1.03,11.999,2.902,17.494h-3.579c-30.063,0-59.542,8.076-85.252,23.356c-3.957,2.351-5.257,7.465-2.906,11.422
	c1.558,2.621,4.329,4.077,7.171,4.077c1.449,0,2.915-0.378,4.25-1.171c23.133-13.748,49.669-21.015,76.736-21.015h12.781
	c9.983,12.34,25.235,20.249,42.305,20.249s32.324-7.909,42.307-20.249h12.78c40.179,0,77.954,15.649,106.37,44.062
	c28.413,28.403,44.06,66.178,44.06,106.368c0,28.007-22.786,50.791-50.791,50.791h-309.45c-13.56,0-26.314-5.285-35.908-14.883
	c-9.597-9.597-14.883-22.35-14.883-35.908c0-43.511,18.834-84.872,51.673-113.477c3.471-3.023,3.834-8.287,0.81-11.758
	c-3.025-3.471-8.289-3.835-11.757-0.81c-36.474,31.772-57.393,77.713-57.393,126.045c0,18.011,7.018,34.95,19.763,47.695
	c11.281,11.281,25.849,18.065,41.538,19.478l19.301,160.255c3.128,25.98,25.22,45.571,51.389,45.571h180.386
	c0.108,0,0.214-0.007,0.322-0.008c0.063,0.001,0.127,0.008,0.19,0.008c0.173,0,0.342-0.014,0.513-0.024
	c25.715-0.506,47.276-19.909,50.364-45.547l16.141-134.026c0.55-4.57-2.709-8.72-7.278-9.27c-4.56-0.548-8.719,2.708-9.27,7.277
	l-16.141,134.026c-1.721,14.287-11.901,25.722-25.152,29.534l2.95-34.753c0.39-4.586-3.012-8.619-7.598-9.008
	c-4.591-0.386-8.62,3.012-9.008,7.599l-3.185,37.525h-30.574l7.738-188.872h38.865l-10.318,121.562
	C344.363,432.607,347.764,436.641,352.35,437.03z M255.999,92.152c-20.811,0-37.742-16.931-37.742-37.743
	c0.001-20.811,16.932-37.742,37.742-37.742c20.811,0,37.743,16.931,37.743,37.742C293.742,75.222,276.812,92.152,255.999,92.152z
	 M215.557,381.599c-0.19-4.597-4.069-8.174-8.668-7.986c-4.599,0.188-8.174,4.069-7.987,8.668l4.631,113.05H172.96L156.929,306.46
	h38.865l1.871,45.668c0.184,4.482,3.876,7.993,8.322,7.993c0.114,0,0.231-0.002,0.347-0.007c4.599-0.188,8.174-4.069,7.987-8.668
	l-1.842-44.984h35.187v188.872h-27.449L215.557,381.599z M130.967,464.435L111.94,306.461h28.265l15.914,187.508
	C142.867,490.159,132.687,478.723,130.967,464.435z M291.783,495.331h-27.45V306.461h35.188L291.783,495.331z"/>
<circle cx="180.498" cy="129.784" r="8.334"/>
<circle cx="256.002" cy="129.784" r="8.334"/>
<circle cx="331.494" cy="129.784" r="8.334"/>
</svg>