<?xml version="1.0" encoding="iso-8859-1"?>
<!-- Uploaded to: SVG Repo, www.svgrepo.com, Generator: SVG Repo Mixer Tools -->
<svg height="800px" width="800px" version="1.1" id="Layer_1" xmlns="http://www.w3.org/2000/svg" xmlns:xlink="http://www.w3.org/1999/xlink" 
	 viewBox="0 0 511.988 511.988" xml:space="preserve">
<path style="fill:#F4BE8E;" d="M255.994,245.327C114.622,245.327,0,290.849,0,373.332c0,0,0,63.998,63.998,63.998
	c85.342,0,301.135,0,383.992,0c63.998,0,63.998-63.998,63.998-63.998C511.988,290.849,397.381,245.327,255.994,245.327z"/>
<g>
	<path style="fill:#EAAD7A;" d="M426.662,426.643c-5.891,0-10.672,4.781-10.672,10.687c7.656,0,14.797,0,21.344,0
		C437.334,431.425,432.553,426.643,426.662,426.643z"/>
	<path style="fill:#EAAD7A;" d="M383.991,426.643c-5.891,0-10.656,4.781-10.656,10.687c7.641,0,14.781,0,21.327,0
		C394.662,431.425,389.881,426.643,383.991,426.643z"/>
	<path style="fill:#EAAD7A;" d="M341.336,426.643c-5.891,0-10.672,4.781-10.672,10.687c7.656,0,14.797,0,21.328,0
		C351.992,431.425,347.226,426.643,341.336,426.643z"/>
	<path style="fill:#EAAD7A;" d="M298.664,426.643c-5.89,0-10.671,4.781-10.671,10.687c7.656,0,14.796,0,21.343,0
		C309.336,431.425,304.555,426.643,298.664,426.643z"/>
	<path style="fill:#EAAD7A;" d="M255.994,426.643c-5.891,0-10.656,4.781-10.656,10.687c7.641,0,14.781,0,21.328,0
		C266.666,431.425,261.885,426.643,255.994,426.643z"/>
	<path style="fill:#EAAD7A;" d="M213.339,426.643c-5.891,0-10.672,4.781-10.672,10.687c7.656,0,14.797,0,21.328,0
		C223.995,431.425,219.229,426.643,213.339,426.643z"/>
	<path style="fill:#EAAD7A;" d="M170.668,426.643c-5.891,0-10.672,4.781-10.672,10.687c7.656,0,14.797,0,21.344,0
		C181.34,431.425,176.558,426.643,170.668,426.643z"/>
	<path style="fill:#EAAD7A;" d="M127.997,426.643c-5.891,0-10.656,4.781-10.656,10.687c7.641,0,14.781,0,21.327,0
		C138.668,431.425,133.888,426.643,127.997,426.643z"/>
	<path style="fill:#EAAD7A;" d="M85.342,426.643c-5.891,0-10.672,4.781-10.672,10.687c7.656,0,14.797,0,21.327,0
		C95.997,431.425,91.232,426.643,85.342,426.643z"/>
	<path style="fill:#EAAD7A;" d="M150.465,303.428c1.766,3.5,5.359,5.906,9.531,5.906c5.891,0,10.672-4.781,10.672-10.688
		c0-1.719-0.422-3.328-1.141-4.766h0.016c-0.125-0.234-9.812-20.109-0.812-42.226c-8.047,1.242-15.922,2.656-23.562,4.249
		C139.746,281.49,149.902,302.303,150.465,303.428L150.465,303.428z"/>
	<path style="fill:#EAAD7A;" d="M255.994,245.327c-7.594,0-15.109,0.133-22.531,0.391c-11.187,30.022,1.688,56.444,2.328,57.71
		h0.016c1.75,3.5,5.359,5.906,9.531,5.906c5.891,0,10.656-4.781,10.656-10.688c0-1.719-0.406-3.328-1.141-4.766h0.016
		c-0.125-0.25-11.734-24.062,2.281-48.554C256.76,245.327,256.385,245.327,255.994,245.327z"/>
	<path style="fill:#EAAD7A;" d="M317.851,248.405c-9.484,28.897,2.656,53.804,3.281,55.022l0,0c1.75,3.5,5.359,5.906,9.531,5.906
		c5.891,0,10.672-4.781,10.672-10.688c0-1.719-0.422-3.328-1.141-4.766l0,0c-0.109-0.234-9.969-20.453-0.578-42.772
		C332.492,250.069,325.242,249.163,317.851,248.405z"/>
</g>
<g>
	<path style="fill:#E6E9ED;" d="M328.32,185.297l0.062,0.07c-0.031-0.031-2.547-3.297-3.625-7.484
		c-1.109-4.328-0.266-7.508,2.812-10.609c8.672-8.694,11.531-19.991,8.078-31.804c-2.328-7.938-6.797-13.531-7.391-14.25
		c0-0.008-0.016-0.016-0.016-0.016c0-0.008,0-0.016-0.016-0.016l0,0c-1.953-2.359-4.906-3.858-8.203-3.858
		c-5.891,0-10.672,4.772-10.672,10.663c0,2.586,0.922,4.961,2.453,6.805l0,0c0.031,0.031,2.281,2.938,3.359,6.664
		c1.281,4.352,0.469,7.57-2.703,10.758c-8.641,8.68-11.516,20.046-8.078,31.999c2.328,8.102,6.828,13.844,7.328,14.469l0,0
		c1.969,2.422,4.953,3.969,8.312,3.969c5.891,0,10.656-4.773,10.656-10.664c0-2.539-0.875-4.859-2.359-6.688v-0.008H328.32z"/>
	<path style="fill:#E6E9ED;" d="M263.791,100.002c-3.172-11.945-9.297-20.227-10-21.133v0.008c-1.953-2.562-5.016-4.219-8.484-4.219
		c-5.891,0-10.672,4.781-10.672,10.672c0,2.406,0.812,4.617,2.156,6.406v0.008c0.047,0.055,4.484,6.094,6.531,14.312
		c2.453,9.836,0.484,18.187-6,25.538c-11.405,12.891-15.03,28.695-10.499,45.726c3.171,11.938,9.312,20.227,9.999,21.133v-0.008
		c1.953,2.555,5.016,4.211,8.484,4.211c5.891,0,10.672-4.773,10.672-10.664c0-2.406-0.812-4.625-2.156-6.406l0.016-0.008
		c-0.047-0.062-4.5-6.102-6.547-14.312c-2.453-9.843-0.484-18.194,6.016-25.538C264.697,132.837,268.322,117.025,263.791,100.002z"
		/>
	<path style="fill:#E6E9ED;" d="M186.261,135.47c-2.312-7.938-6.796-13.531-7.374-14.25c-0.016-0.008-0.016-0.016-0.016-0.016
		c0-0.008-0.016-0.016-0.016-0.016l0,0c-1.953-2.359-4.906-3.858-8.219-3.858c-5.891,0-10.656,4.772-10.656,10.663
		c0,2.586,0.922,4.961,2.453,6.805l0,0c0.016,0.031,2.266,2.938,3.359,6.664c1.281,4.352,0.469,7.57-2.703,10.758
		c-8.641,8.68-11.516,20.046-8.094,31.999c2.328,8.102,6.844,13.844,7.344,14.469l0,0c1.953,2.422,4.953,3.969,8.297,3.969
		c5.891,0,10.672-4.773,10.672-10.664c0-2.539-0.891-4.859-2.359-6.688v-0.008l0.047,0.07c-0.016-0.031-2.531-3.297-3.609-7.484
		c-1.125-4.328-0.281-7.508,2.812-10.609C186.854,158.579,189.729,147.282,186.261,135.47z"/>
</g>
<g style="opacity:0.2;">
	<path style="fill:#FFFFFF;" d="M255.994,266.654c134.262,0,244.385,41.055,255.135,115.834c0.859-5.531,0.859-9.156,0.859-9.156
		c0-82.482-114.607-128.005-255.994-128.005C114.622,245.327,0,290.849,0,373.332c0,0,0,3.625,0.874,9.156
		C11.624,307.709,121.731,266.654,255.994,266.654z"/>
</g>
</svg>